<svg width="1200" height="750" viewBox="0 0 1200 750" fill="none" xmlns="http://www.w3.org/2000/svg">
  <rect width="1200" height="750" fill="#08111F"/>
  <rect x="70" y="70" width="1060" height="610" rx="28" fill="#0F172A" stroke="#274156"/>
  <rect x="110" y="120" width="440" height="120" rx="18" fill="#132236" stroke="#44D9E8" stroke-opacity=".35"/>
  <rect x="110" y="280" width="300" height="28" rx="14" fill="#44D9E8"/>
  <rect x="110" y="330" width="480" height="18" rx="9" fill="#64748B"/>
  <rect x="110" y="368" width="380" height="18" rx="9" fill="#334155"/>
  <rect x="650" y="120" width="410" height="420" rx="22" fill="#0A0F1F" stroke="#334155"/>
  <rect x="690" y="170" width="330" height="48" rx="12" fill="#1E293B"/>
  <rect x="690" y="250" width="250" height="48" rx="12" fill="#163B46"/>
  <rect x="690" y="330" width="300" height="48" rx="12" fill="#1E293B"/>
  <circle cx="1000" cy="590" r="42" fill="#44D9E8"/>
  <path d="M250 570H950" stroke="#44D9E8" stroke-width="3" stroke-dasharray="10 16"/>
  <circle cx="250" cy="570" r="12" fill="#A4F178"/>
  <circle cx="600" cy="570" r="12" fill="#44D9E8"/>
  <circle cx="950" cy="570" r="12" fill="#A4F178"/>
</svg>
