<svg width="1200" height="750" viewBox="0 0 1200 750" fill="none" xmlns="http://www.w3.org/2000/svg">
  <rect width="1200" height="750" fill="#08111F"/>
  <rect x="90" y="92" width="1020" height="566" rx="30" fill="#0F172A" stroke="#334155"/>
  <path d="M190 550C310 510 365 405 465 430C575 458 600 245 735 275C835 297 865 210 1010 175" stroke="#44D9E8" stroke-width="8" stroke-linecap="round"/>
  <circle cx="190" cy="550" r="18" fill="#A4F178"/>
  <circle cx="465" cy="430" r="18" fill="#44D9E8"/>
  <circle cx="735" cy="275" r="18" fill="#A4F178"/>
  <circle cx="1010" cy="175" r="18" fill="#44D9E8"/>
  <rect x="160" y="150" width="270" height="34" rx="17" fill="#44D9E8"/>
  <rect x="160" y="208" width="420" height="18" rx="9" fill="#64748B"/>
  <rect x="160" y="248" width="330" height="18" rx="9" fill="#334155"/>
  <rect x="760" y="470" width="260" height="70" rx="18" fill="#101827" stroke="#A4F178" stroke-opacity=".55"/>
</svg>
