<svg width="1200" height="750" viewBox="0 0 1200 750" fill="none" xmlns="http://www.w3.org/2000/svg">
  <rect width="1200" height="750" fill="#08111F"/>
  <rect x="120" y="95" width="960" height="560" rx="28" fill="#0F172A" stroke="#334155"/>
  <circle cx="360" cy="365" r="150" fill="#44D9E8" fill-opacity=".12" stroke="#44D9E8"/>
  <circle cx="360" cy="365" r="75" fill="#44D9E8" fill-opacity=".18"/>
  <path d="M360 215V365L470 455" stroke="#44D9E8" stroke-width="7" stroke-linecap="round"/>
  <rect x="610" y="210" width="330" height="44" rx="12" fill="#172338"/>
  <rect x="610" y="300" width="390" height="44" rx="12" fill="#172338"/>
  <rect x="610" y="390" width="280" height="44" rx="12" fill="#172338"/>
  <rect x="610" y="480" width="350" height="44" rx="12" fill="#172338"/>
  <rect x="640" y="224" width="190" height="16" rx="8" fill="#44D9E8"/>
  <rect x="640" y="314" width="260" height="16" rx="8" fill="#64748B"/>
  <rect x="640" y="404" width="170" height="16" rx="8" fill="#A4F178"/>
  <rect x="640" y="494" width="230" height="16" rx="8" fill="#64748B"/>
</svg>
